<?xml version="1.0" encoding="UTF-8" standalone="no"?>
<!-- Created with Inkscape (http://www.inkscape.org/) -->

<svg
   width="400"
   height="400"
   viewBox="0 0 400 400"
   version="1.1"
   id="svg1"
   xml:space="preserve"
   inkscape:version="1.3.2 (091e20e, 2023-11-25, custom)"
   sodipodi:docname="peazip.svg"
   xmlns:inkscape="http://www.inkscape.org/namespaces/inkscape"
   xmlns:sodipodi="http://sodipodi.sourceforge.net/DTD/sodipodi-0.dtd"
   xmlns="http://www.w3.org/2000/svg"
   xmlns:svg="http://www.w3.org/2000/svg"
   xmlns:rdf="http://www.w3.org/1999/02/22-rdf-syntax-ns#"
   xmlns:cc="http://creativecommons.org/ns#"
   xmlns:dc="http://purl.org/dc/elements/1.1/"><sodipodi:namedview
     id="namedview1"
     pagecolor="#ffffff"
     bordercolor="#111111"
     borderopacity="1"
     inkscape:showpageshadow="0"
     inkscape:pageopacity="0"
     inkscape:pagecheckerboard="1"
     inkscape:deskcolor="#d1d1d1"
     inkscape:document-units="px"
     inkscape:zoom="0.70710678"
     inkscape:cx="365.5742"
     inkscape:cy="36.062446"
     inkscape:window-width="1920"
     inkscape:window-height="991"
     inkscape:window-x="-9"
     inkscape:window-y="-9"
     inkscape:window-maximized="1"
     inkscape:current-layer="layer1"
     showguides="false" /><defs
     id="defs1" /><g
     inkscape:label="Layer 1"
     inkscape:groupmode="layer"
     id="layer1"
     transform="translate(-24.151487,-98.235199)"><g
       id="g65567"
       transform="translate(24.151487,98.235199)"
       inkscape:label="peazip"><path
         d="M 399.99962,0 H 3.815e-4 C 72.860241,0 141.16402,19.489574 200,53.525734 258.83598,19.489574 327.13976,0 399.99962,0 Z"
         fill="#fcaa0c"
         stroke-width="0"
         id="path1" /><path
         d="M 400,399.99962 V 3.815e-4 C 400,72.860241 380.51043,141.16402 346.47427,200 380.51043,258.83598 400,327.13976 400,399.99962 Z"
         fill="#90be03"
         stroke-width="0"
         id="path2" /><path
         d="M 200,53.525734 C 141.16402,19.489574 72.860241,0 3.815e-4,0 H 0 V 399.99962 C 0,251.94578 80.443191,122.68839 200,53.525734 Z"
         fill="#fed90d"
         stroke-width="0"
         id="path3" /><path
         d="M 3.815e-4,400 H 400 v -3.8e-4 C 400,327.13976 380.51043,258.83598 346.47427,200 277.31161,319.55681 148.05422,400 3.815e-4,400 Z"
         fill="#98e600"
         stroke-width="0"
         id="path4" /><path
         d="M 261.25097,97.124004 C 242.29956,80.762577 221.8051,66.139793 200,53.525734 80.443191,122.68839 0,251.94578 0,399.99962 V 400 H 3.815e-4 C 148.05422,400 277.31161,319.55681 346.47427,200 333.86021,178.1949 319.23742,157.70044 302.876,138.74903 282.38659,133.73423 266.26577,117.61341 261.25097,97.124004 Z"
         fill="#729700"
         stroke-width="0"
         id="path5" /><path
         d="M 399.99962,0 C 327.13976,0 258.83598,19.489574 200,53.525734 260.72083,88.652229 311.34777,139.27917 346.47427,200 380.51043,141.16402 400,72.860241 400,3.815e-4 V 0 Z"
         fill="#6f8602"
         stroke-width="0"
         id="path6" /><g
         id="g7"><circle
           cx="200"
           cy="200"
           r="78.703514"
           fill="#58c300"
           stroke-width="0"
           id="circle6" /><circle
           cx="200"
           cy="200"
           r="52.073009"
           fill="#efdb00"
           stroke-width="0"
           id="circle7" /></g><g
         id="g9"><circle
           cx="78.51487"
           cy="321.60904"
           r="56.843868"
           fill="#58c300"
           stroke-width="0"
           id="circle8" /><circle
           cx="78.51487"
           cy="321.60904"
           r="30.183945"
           fill="#efdb00"
           stroke-width="0"
           id="circle9" /></g><g
         id="g11"><g
           id="g10"><path
             d="m 373.23713,83.575249 c 0,-31.376648 -25.43583,-56.812382 -56.81238,-56.812382 -31.37665,0 -56.81248,25.435734 -56.81248,56.812382 0,4.670906 0.57564,9.205532 1.6387,13.548755 14.87131,12.838936 28.78609,26.753716 41.62503,41.625026 4.34322,1.06306 8.87785,1.6387 13.54875,1.6387 31.37655,0 56.81238,-25.43583 56.81238,-56.812481 z"
             fill="#58b900"
             stroke-width="0"
             id="path9" /><path
             d="m 261.25097,97.124004 c 5.0148,20.489406 21.13562,36.610226 41.62503,41.625026 -12.83894,-14.87131 -26.75372,-28.78609 -41.62503,-41.625026 z"
             fill="#58c300"
             stroke-width="0"
             id="path10" /></g><circle
           cx="316.42471"
           cy="83.575294"
           r="30.124687"
           fill="#cfcd00"
           stroke-width="0"
           id="circle10" /></g></g><g
       id="g65584"
       inkscape:label="pea"
       transform="matrix(1.5625,0,0,1.5625,-13.585211,-55.257299)"><path
         d="m 118.15149,177.2352 3,99 86,-52 z"
         style="display:inline;fill:#ffffff;fill-opacity:0.9;stroke-width:2.34462"
         id="path65550"
         sodipodi:nodetypes="cccc" /><circle
         style="fill:none;fill-opacity:0.9;stroke:#ffffff;stroke-width:10.183;stroke-linejoin:round;stroke-miterlimit:0;stroke-dasharray:none;stroke-opacity:0.94902"
         id="path65584"
         cx="152.15149"
         cy="226.2352"
         r="104.9885" /></g></g><metadata
     id="metadata65584"><rdf:RDF><cc:Work
         rdf:about=""><cc:license
           rdf:resource="https://www.gnu.org/licenses/fdl-1.3" /><dc:contributor><cc:Agent><dc:title>Makoto Sakaguchi</dc:title></cc:Agent></dc:contributor><dc:date>2024/07/01</dc:date></cc:Work></rdf:RDF></metadata></svg>
